<svg xmlns="http://www.w3.org/2000/svg" xmlns:xlink="http://www.w3.org/1999/xlink" viewBox="0,0,256,256" width="48px" height="48px" fill-rule="nonzero"><g fill="#ffffff" fill-rule="nonzero" stroke="none" stroke-width="1" stroke-linecap="butt" stroke-linejoin="miter" stroke-miterlimit="10" stroke-dasharray="" stroke-dashoffset="0" font-family="none" font-weight="none" font-size="none" text-anchor="none" style="mix-blend-mode: normal"><g transform="scale(4,4)"><path d="M51.336,31h-27.695c-0.868,0 -1.637,0.56 -1.903,1.386l-4.39,13.614c0.338,0 0.764,0 1.083,0h28.099c0.436,0 0.821,-0.283 0.953,-0.698l4.317,-13.67c0.049,-0.156 0.016,-0.314 -0.071,-0.433c-0.089,-0.119 -0.229,-0.199 -0.393,-0.199zM48,20h-18.896c-1.81,0 -3.585,-0.623 -4.998,-1.753l-1.712,-1.37c-0.706,-0.566 -1.593,-0.877 -2.498,-0.877h-3.896c-1.103,0 -2,0.897 -2,2v23.869c0,0.443 0,1.047 0,1.48l3.931,-12.19c0.8,-2.488 3.095,-4.159 5.71,-4.159h26.359v-5c0,-1.103 -0.897,-2 -2,-2zM48,16c3.309,0 6,2.691 6,6v5.546c0.473,0.274 0.895,0.639 1.225,1.089c0.751,1.024 0.971,2.358 0.588,3.569l-4.516,14.301c-0.661,2.091 -2.577,3.495 -4.768,3.495h-30.529c-3.309,0 -6,-2.691 -6,-6v-26c0,-3.309 2.691,-6 6,-6h3.896c1.81,0 3.585,0.623 4.998,1.753l1.713,1.37c0.705,0.566 1.592,0.877 2.497,0.877z"></path></g></g></svg>